<?xml version="1.0" encoding="utf-8"?>
<!-- Generator: Adobe Illustrator 27.5.0, SVG Export Plug-In . SVG Version: 6.00 Build 0)  -->
<svg version="1.1" xmlns="http://www.w3.org/2000/svg" xmlns:xlink="http://www.w3.org/1999/xlink" x="0px" y="0px"
	 viewBox="0 0 750 500" style="enable-background:new 0 0 750 500;" xml:space="preserve">
<g id="BACKGROUND">
	<rect style="fill:#FFFFFF;" width="750" height="500"/>
</g>
<g id="OBJECTS">
	<g>
		<path style="opacity:0.42;fill:#EAEAE8;" d="M184.558,426.06h83.381c45.453-8.048,79.261-18.426,108.846-0.675
			c0.375,0.225,0.772,0.45,1.18,0.675h189.232c48.222,0,98.782-41.375,111.253-85.279c39.445-138.868-61.023-201.721-156.042-176.67
			c-62.595,16.503-81.144-89.568-179.168-115.104c0,0-56.713-18.287-95.648,29.801c-34.922,43.132,18.176,119.028-42.375,139.271
			C167.332,230.743,88.635,234.441,83.628,320.4C80.45,374.964,124.848,422.207,184.558,426.06z"/>
		<path style="fill:#4C6C61;" d="M669.765,426.196H500.197c0,0-6.204-25.849,0.689-28.261c6.893-2.413,11.373,15.854,11.373,15.854
			s-7.238-49.63,13.441-60.659c20.679-11.029,34.81,32.397,34.81,32.397s6.204-32.397,22.747-31.363
			c16.543,1.034,11.718,34.465,11.718,34.465s12.407-31.363,35.154-18.956c22.747,12.407,2.757,36.533,2.757,36.533
			S662.182,392.765,669.765,426.196z"/>
		<path style="fill:#282A2D;" d="M563.135,425.676c0,0-11.229-1.688-9.931-9.477c1.298-7.789,21.615-4.544,21.615-4.544
			s-18.718-14.945-4.868-27.197c10.126-8.957,23.302,3.31,23.302,3.31s0.779-11.943,10.126-11.684
			c9.347,0.26,8.049,19.473,8.049,19.473s3.635-16.032,11.943-10.32c8.308,5.712-3.375,14.734-3.375,14.734
			s16.941-12.398,15.643-5.647c-1.298,6.751-7.854,12.138-7.854,12.138s25.704-4.089,23.887,19.732L563.135,425.676z"/>
		<g>
			<polygon style="fill:#E8DBC4;" points="425.073,171.552 467.106,171.552 467.106,218.773 473.104,212.775 473.104,144.931 
				488.122,144.931 488.122,109.904 489.115,109.904 489.115,145.457 497.988,154.33 497.988,198.523 541.714,198.523 
				541.714,290.643 422.271,290.643 			"/>
			<polygon style="fill:#F3E8D2;" points="430.678,330.225 430.678,141.428 373.934,141.428 373.934,241.641 359.222,241.641 
				359.222,329.666 369.071,330.225 			"/>
			<g>
				<g>
					<g>
						<rect x="381.399" y="150.076" style="fill:#FFFFFF;" width="5.21" height="5.21"/>
						<rect x="388.535" y="150.076" style="fill:#FFFFFF;" width="5.21" height="5.21"/>
					</g>
					<g>
						<rect x="381.399" y="156.95" style="fill:#FFFFFF;" width="5.21" height="5.21"/>
						<rect x="388.535" y="156.95" style="fill:#FFFFFF;" width="5.21" height="5.21"/>
					</g>
				</g>
				<g>
					<g>
						<rect x="381.399" y="165.729" style="fill:#FFFFFF;" width="5.21" height="5.21"/>
						<rect x="388.535" y="165.729" style="fill:#FFFFFF;" width="5.21" height="5.21"/>
					</g>
					<g>
						<rect x="381.399" y="172.603" style="fill:#FFFFFF;" width="5.21" height="5.21"/>
						<rect x="388.535" y="172.603" style="fill:#FFFFFF;" width="5.21" height="5.21"/>
					</g>
				</g>
				<g>
					<g>
						<rect x="405.349" y="165.729" style="fill:#FFFFFF;" width="5.21" height="5.21"/>
						<rect x="412.485" y="165.729" style="fill:#FFFFFF;" width="5.21" height="5.21"/>
					</g>
					<g>
						<rect x="405.349" y="172.603" style="fill:#FFFFFF;" width="5.21" height="5.21"/>
						<rect x="412.485" y="172.603" style="fill:#FFFFFF;" width="5.21" height="5.21"/>
					</g>
				</g>
				<g>
					<g>
						<rect x="405.349" y="185.059" style="fill:#FFFFFF;" width="5.21" height="5.21"/>
						<rect x="412.485" y="185.059" style="fill:#FFFFFF;" width="5.21" height="5.21"/>
					</g>
					<g>
						<rect x="405.349" y="191.934" style="fill:#FFFFFF;" width="5.21" height="5.21"/>
						<rect x="412.485" y="191.934" style="fill:#FFFFFF;" width="5.21" height="5.21"/>
					</g>
				</g>
				<g>
					<g>
						<rect x="405.349" y="229.894" style="fill:#FFFFFF;" width="5.21" height="5.21"/>
						<rect x="412.485" y="229.894" style="fill:#FFFFFF;" width="5.21" height="5.21"/>
					</g>
					<g>
						<rect x="405.349" y="236.768" style="fill:#FFFFFF;" width="5.21" height="5.21"/>
						<rect x="412.485" y="236.768" style="fill:#FFFFFF;" width="5.21" height="5.21"/>
					</g>
				</g>
				<g>
					<g>
						<rect x="405.349" y="249.911" style="fill:#FFFFFF;" width="5.21" height="5.21"/>
						<rect x="412.485" y="249.911" style="fill:#FFFFFF;" width="5.21" height="5.21"/>
					</g>
					<g>
						<rect x="405.349" y="256.785" style="fill:#FFFFFF;" width="5.21" height="5.21"/>
						<rect x="412.485" y="256.785" style="fill:#FFFFFF;" width="5.21" height="5.21"/>
					</g>
				</g>
			</g>
			<g>
				<path style="fill:#F3E8D2;" d="M541.014,290.643c-0.019-5.55-0.017-11.335,0-17.046v-44.6h-17.027l-31.57,31.174v-68.653
					h-45.404v84.766h-17.741l0.005,50.27c0,0,98.554-2.019,111.737-0.463V290.643z"/>
				<g>
					<g>
						<g>
							<rect x="452.365" y="196.246" style="fill:#FFFFFF;" width="5.21" height="5.21"/>
							<rect x="459.502" y="196.246" style="fill:#FFFFFF;" width="5.21" height="5.21"/>
						</g>
						<g>
							<rect x="452.365" y="203.12" style="fill:#FFFFFF;" width="5.21" height="5.21"/>
							<rect x="459.502" y="203.12" style="fill:#FFFFFF;" width="5.21" height="5.21"/>
						</g>
					</g>
					<g>
						<g>
							<rect x="452.365" y="211.899" style="fill:#FFFFFF;" width="5.21" height="5.21"/>
							<rect x="459.502" y="211.899" style="fill:#FFFFFF;" width="5.21" height="5.21"/>
						</g>
						<g>
							<rect x="452.365" y="218.773" style="fill:#FFFFFF;" width="5.21" height="5.21"/>
							<rect x="459.502" y="218.773" style="fill:#FFFFFF;" width="5.21" height="5.21"/>
						</g>
					</g>
					<g>
						<g>
							<rect x="452.365" y="241.971" style="fill:#FFFFFF;" width="5.21" height="5.21"/>
							<rect x="459.502" y="241.971" style="fill:#FFFFFF;" width="5.21" height="5.21"/>
						</g>
						<g>
							<rect x="452.365" y="248.846" style="fill:#FFFFFF;" width="5.21" height="5.21"/>
							<rect x="459.502" y="248.846" style="fill:#FFFFFF;" width="5.21" height="5.21"/>
						</g>
					</g>
				</g>
				<g>
					<g>
						<g>
							<rect x="472.229" y="196.246" style="fill:#FFFFFF;" width="5.21" height="5.21"/>
							<rect x="479.366" y="196.246" style="fill:#FFFFFF;" width="5.21" height="5.21"/>
						</g>
						<g>
							<rect x="472.229" y="203.12" style="fill:#FFFFFF;" width="5.21" height="5.21"/>
							<rect x="479.366" y="203.12" style="fill:#FFFFFF;" width="5.21" height="5.21"/>
						</g>
					</g>
					<g>
						<g>
							<rect x="472.229" y="211.899" style="fill:#FFFFFF;" width="5.21" height="5.21"/>
							<rect x="479.366" y="211.899" style="fill:#FFFFFF;" width="5.21" height="5.21"/>
						</g>
						<g>
							<rect x="472.229" y="218.773" style="fill:#FFFFFF;" width="5.21" height="5.21"/>
							<rect x="479.366" y="218.773" style="fill:#FFFFFF;" width="5.21" height="5.21"/>
						</g>
					</g>
				</g>
				<g>
					<g>
						<rect x="522.88" y="239.235" style="fill:#FFFFFF;" width="5.21" height="5.21"/>
						<rect x="530.016" y="239.235" style="fill:#FFFFFF;" width="5.21" height="5.21"/>
					</g>
					<g>
						<rect x="522.88" y="246.109" style="fill:#FFFFFF;" width="5.21" height="5.21"/>
						<rect x="530.016" y="246.109" style="fill:#FFFFFF;" width="5.21" height="5.21"/>
					</g>
				</g>
			</g>
			<g>
				<polygon style="fill:#FFF6E6;" points="515.794,326.022 515.794,302.554 498.767,302.554 475.001,326.022 				"/>
				<rect x="421.793" y="265.075" style="fill:#FFF6E6;" width="45.404" height="60.947"/>
				<g>
					<g>
						<g>
							<rect x="427.146" y="269.803" style="fill:#FFFFFF;" width="5.21" height="5.21"/>
							<rect x="434.283" y="269.803" style="fill:#FFFFFF;" width="5.21" height="5.21"/>
						</g>
						<g>
							<rect x="427.146" y="276.678" style="fill:#FFFFFF;" width="5.21" height="5.21"/>
							<rect x="434.283" y="276.678" style="fill:#FFFFFF;" width="5.21" height="5.21"/>
						</g>
					</g>
					<g>
						<g>
							<rect x="427.146" y="285.456" style="fill:#FFFFFF;" width="5.21" height="5.21"/>
							<rect x="434.283" y="285.456" style="fill:#FFFFFF;" width="5.21" height="5.21"/>
						</g>
						<g>
							<rect x="427.146" y="292.33" style="fill:#FFFFFF;" width="5.21" height="5.21"/>
							<rect x="434.283" y="292.33" style="fill:#FFFFFF;" width="5.21" height="5.21"/>
						</g>
					</g>
					<g>
						<g>
							<rect x="427.146" y="315.529" style="fill:#FFFFFF;" width="5.21" height="5.21"/>
							<rect x="434.283" y="315.529" style="fill:#FFFFFF;" width="5.21" height="5.21"/>
						</g>
						<g>
							<rect x="427.146" y="322.403" style="fill:#FFFFFF;" width="5.21" height="3.62"/>
							<rect x="434.283" y="322.403" style="fill:#FFFFFF;" width="5.21" height="3.62"/>
						</g>
					</g>
				</g>
				<g>
					<g>
						<g>
							<rect x="447.009" y="269.803" style="fill:#FFFFFF;" width="5.21" height="5.21"/>
							<rect x="454.146" y="269.803" style="fill:#FFFFFF;" width="5.21" height="5.21"/>
						</g>
						<g>
							<rect x="447.009" y="276.678" style="fill:#FFFFFF;" width="5.21" height="5.21"/>
							<rect x="454.146" y="276.678" style="fill:#FFFFFF;" width="5.21" height="5.21"/>
						</g>
					</g>
					<g>
						<g>
							<rect x="447.009" y="285.456" style="fill:#FFFFFF;" width="5.21" height="5.21"/>
							<rect x="454.146" y="285.456" style="fill:#FFFFFF;" width="5.21" height="5.21"/>
						</g>
						<g>
							<rect x="447.009" y="292.33" style="fill:#FFFFFF;" width="5.21" height="5.21"/>
							<rect x="454.146" y="292.33" style="fill:#FFFFFF;" width="5.21" height="5.21"/>
						</g>
					</g>
				</g>
				<g>
					<g>
						<rect x="497.66" y="312.792" style="fill:#FFFFFF;" width="5.21" height="5.21"/>
						<rect x="504.797" y="312.792" style="fill:#FFFFFF;" width="5.21" height="5.21"/>
					</g>
					<g>
						<rect x="497.66" y="319.666" style="fill:#FFFFFF;" width="5.21" height="5.21"/>
						<rect x="504.797" y="319.666" style="fill:#FFFFFF;" width="5.21" height="5.21"/>
					</g>
				</g>
			</g>
		</g>
		<rect x="556.091" y="109.447" style="fill:#F3E8D2;" width="59.131" height="20.95"/>
		<rect x="583.699" y="130.646" style="opacity:0.5;fill:#F3E8D2;" width="52.451" height="20.95"/>
		<rect x="562.23" y="206.14" style="fill:#F3E8D2;" width="52.451" height="20.95"/>
		<g>
			<path style="fill:#BE3435;" d="M474.49,162.398c1.21,1.386,3.276,1.798,4.923,0.976c1.307-0.653,2.089-1.856,2.264-3.148
				c0.1-0.733,0.479-1.398,1.089-1.818l0.356-0.245c1.018-0.701,2.396-0.581,3.262,0.3c0.432,0.439,0.882,0.862,1.349,1.266
				c0.723,0.626,0.899,1.676,0.394,2.489l-0.114,0.183c-0.27,0.434-0.703,0.737-1.201,0.856c-0.673,0.161-1.273,0.629-1.57,1.353
				c-0.351,0.857-0.115,1.89,0.575,2.508c1.079,0.967,2.708,0.696,3.437-0.477c0.323-0.519,0.409-1.119,0.288-1.673
				c-0.111-0.506-0.04-1.033,0.233-1.473c0.532-0.856,1.626-1.146,2.524-0.688c0.719,0.367,1.464,0.699,2.232,0.993
				c1.287,0.492,2.017,1.858,1.767,3.213l-0.001,0.005c-0.146,0.794-0.624,1.481-1.302,1.919c-1.075,0.693-1.828,1.881-1.889,3.314
				c-0.078,1.839,1.141,3.556,2.901,4.095c2.406,0.737,4.843-0.793,5.286-3.194c0.215-1.164-0.082-2.302-0.731-3.187
				c-0.478-0.652-0.68-1.464-0.533-2.259c0.253-1.374,1.451-2.365,2.848-2.37c0.527-0.002,1.051-0.021,1.572-0.059
				c0.955-0.069,1.823,0.549,2.04,1.482l0.048,0.203c0.116,0.498,0.024,1.018-0.244,1.454c-0.386,0.628-0.467,1.444-0.09,2.207
				c0.382,0.774,1.22,1.265,2.083,1.229c1.466-0.06,2.443-1.414,2.127-2.769c-0.145-0.621-0.533-1.121-1.04-1.424
				c-0.424-0.253-0.704-0.689-0.816-1.169l-0.001-0.002c-0.228-0.98,0.339-1.96,1.297-2.27c0.828-0.268,1.637-0.583,2.426-0.941
				c1.148-0.521,2.5-0.187,3.215,0.852l0.249,0.362c0.42,0.61,0.537,1.367,0.368,2.087c-0.297,1.269,0.004,2.672,0.992,3.749
				c1.245,1.356,3.321,1.708,4.947,0.845c2.222-1.18,2.865-3.986,1.48-5.997c-0.679-0.985-1.709-1.583-2.806-1.742
				c-0.746-0.108-1.429-0.476-1.857-1.097l-0.243-0.354c-0.701-1.018-0.582-2.396,0.299-3.262c0.439-0.431,0.862-0.882,1.266-1.349
				c0.626-0.723,1.676-0.899,2.489-0.394l0.183,0.114c0.434,0.27,0.737,0.703,0.856,1.201c0.161,0.674,0.629,1.274,1.354,1.571
				c0.857,0.351,1.89,0.115,2.508-0.575c0.967-1.079,0.695-2.708-0.477-3.437c-0.519-0.323-1.119-0.409-1.673-0.287
				c-0.506,0.111-1.033,0.04-1.473-0.234c-0.855-0.532-1.146-1.626-0.688-2.524c0.367-0.72,0.699-1.464,0.993-2.232
				c0.492-1.287,1.858-2.017,3.213-1.767l0.005,0.001c0.794,0.146,1.481,0.624,1.919,1.303c0.693,1.075,1.881,1.827,3.313,1.888
				c1.839,0.079,3.556-1.141,4.095-2.9c0.737-2.406-0.792-4.844-3.194-5.286c-1.164-0.215-2.302,0.082-3.186,0.731
				c-0.652,0.478-1.464,0.68-2.259,0.533c-1.374-0.253-2.365-1.451-2.369-2.847c-0.002-0.527-0.022-1.051-0.059-1.572
				c-0.069-0.955,0.549-1.823,1.481-2.04l0.203-0.047c0.498-0.116,1.018-0.024,1.454,0.244c0.628,0.386,1.444,0.467,2.208,0.09
				c0.774-0.383,1.264-1.22,1.229-2.083c-0.06-1.465-1.414-2.442-2.769-2.127c-0.621,0.145-1.121,0.533-1.423,1.04
				c-0.253,0.423-0.689,0.704-1.169,0.816l-0.002,0.001c-0.98,0.228-1.96-0.339-2.27-1.296c-0.268-0.827-0.583-1.637-0.941-2.426
				c-0.531-1.171-0.105-2.556,0.954-3.285l0.222-0.153c0.633-0.436,1.417-0.551,2.168-0.384c1.258,0.28,2.641-0.025,3.705-1.002
				c1.356-1.245,1.708-3.321,0.845-4.947c-1.18-2.222-3.985-2.864-5.997-1.479c-0.92,0.633-1.221,1.625-1.256,2.67
				c-0.029,0.877-0.43,1.698-1.152,2.196l-0.273,0.188c-0.982,0.676-2.298,0.624-3.209-0.144c-0.658-0.555-1.36-1.09-1.913-1.569
				c-0.723-0.626-0.899-1.676-0.394-2.489l0.114-0.183c0.27-0.434,0.703-0.737,1.201-0.856c0.674-0.16,1.274-0.629,1.571-1.354
				c0.351-0.857,0.115-1.89-0.575-2.508c-1.079-0.967-2.708-0.695-3.437,0.477c-0.323,0.52-0.409,1.119-0.287,1.673
				c0.111,0.506,0.04,1.034-0.234,1.473c-0.532,0.855-1.627,1.146-2.524,0.688c-0.72-0.367-1.464-0.699-2.232-0.993
				c-1.287-0.492-2.017-1.858-1.767-3.214l0.001-0.005c0.147-0.794,0.624-1.481,1.302-1.919c1.075-0.693,1.827-1.881,1.889-3.314
				c0.079-1.839-1.141-3.556-2.9-4.095c-2.406-0.737-4.843,0.793-5.287,3.194c-0.215,1.164,0.082,2.302,0.731,3.186
				c0.478,0.652,0.68,1.464,0.533,2.259c-0.253,1.374-1.45,2.365-2.848,2.369c-0.527,0.002-1.051,0.022-1.572,0.059
				c-0.955,0.069-1.823-0.549-2.04-1.482l-0.048-0.203c-0.116-0.498-0.024-1.018,0.244-1.454c0.386-0.628,0.467-1.444,0.09-2.207
				c-0.382-0.774-1.22-1.265-2.083-1.229c-1.465,0.06-2.442,1.414-2.127,2.769c0.145,0.621,0.533,1.121,1.04,1.424
				c0.423,0.253,0.704,0.689,0.816,1.169l0.001,0.002c0.228,0.98-0.339,1.96-1.297,2.27c-0.827,0.268-1.637,0.583-2.426,0.941
				c-1.148,0.521-2.5,0.187-3.215-0.852l-0.249-0.362c-0.42-0.609-0.538-1.366-0.369-2.087c0.297-1.269-0.003-2.672-0.992-3.749
				c-1.245-1.355-3.321-1.708-4.947-0.845c-2.222,1.18-2.864,3.985-1.48,5.997c0.678,0.985,1.709,1.583,2.806,1.742
				c0.746,0.108,1.429,0.476,1.857,1.097l0.243,0.354c0.701,1.018,0.581,2.396-0.3,3.262c-0.439,0.432-0.862,0.882-1.266,1.349
				c-0.626,0.724-1.676,0.899-2.489,0.394l-0.183-0.114c-0.434-0.27-0.737-0.703-0.856-1.201c-0.161-0.674-0.629-1.274-1.354-1.571
				c-0.857-0.351-1.89-0.115-2.508,0.575c-0.967,1.079-0.695,2.708,0.477,3.437c0.52,0.323,1.119,0.409,1.673,0.287
				c0.506-0.111,1.033-0.04,1.473,0.234c0.855,0.532,1.146,1.626,0.688,2.524c-0.367,0.72-0.699,1.464-0.993,2.232
				c-0.492,1.287-1.858,2.017-3.213,1.767l-0.005-0.001c-0.794-0.146-1.481-0.624-1.919-1.302c-0.693-1.075-1.881-1.827-3.314-1.889
				c-1.839-0.078-3.556,1.141-4.095,2.9c-0.737,2.406,0.793,4.844,3.194,5.287c1.164,0.215,2.302-0.083,3.186-0.731
				c0.652-0.478,1.464-0.68,2.259-0.533c1.374,0.253,2.365,1.451,2.37,2.847c0.002,0.527,0.021,1.051,0.059,1.572
				c0.069,0.955-0.549,1.823-1.481,2.04l-0.203,0.048c-0.498,0.116-1.018,0.024-1.454-0.244c-0.628-0.386-1.444-0.467-2.207-0.09
				c-0.774,0.382-1.264,1.22-1.229,2.083c0.06,1.465,1.414,2.442,2.769,2.127c0.621-0.145,1.121-0.533,1.424-1.04
				c0.253-0.424,0.689-0.704,1.169-0.816l0.003,0c0.98-0.228,1.96,0.339,2.27,1.297c0.268,0.827,0.582,1.637,0.941,2.426
				c0.521,1.147,0.187,2.5-0.852,3.215l-0.359,0.247c-0.621,0.428-1.391,0.527-2.126,0.362c-1.082-0.243-2.257-0.053-3.243,0.626
				C473.236,157.653,472.835,160.502,474.49,162.398z"/>
			<g>
				<path style="fill:#991F25;" d="M506.908,127.704c-0.374,1.435-2.171,2.209-4.014,1.729c-1.843-0.48-3.033-2.034-2.659-3.469
					c0.375-1.435,2.172-2.209,4.014-1.729C506.092,124.715,507.283,126.269,506.908,127.704z"/>
				<path style="fill:#991F25;" d="M506.765,158.601c-0.482-0.917,0.083-2.162,1.26-2.78c1.178-0.618,2.523-0.376,3.004,0.541
					c0.481,0.917-0.083,2.162-1.26,2.78C508.591,159.76,507.246,159.518,506.765,158.601z"/>
				<path style="fill:#991F25;" d="M508.733,136.243c0.96-0.39,2.143,0.292,2.644,1.524c0.501,1.232,0.129,2.547-0.831,2.937
					c-0.96,0.39-2.144-0.292-2.644-1.525C507.401,137.948,507.773,136.633,508.733,136.243z"/>
				<path style="fill:#991F25;" d="M489.921,131.111c0.393,0.218,0.486,0.803,0.206,1.308c-0.279,0.505-0.825,0.738-1.218,0.52
					c-0.393-0.218-0.486-0.803-0.206-1.308C488.982,131.126,489.528,130.893,489.921,131.111z"/>
				<path style="fill:#991F25;" d="M522.644,140.16c-1.082,1.015-3.015,0.712-4.317-0.677c-1.303-1.389-1.482-3.337-0.401-4.352
					c1.082-1.015,3.015-0.712,4.318,0.677C523.547,137.197,523.726,139.146,522.644,140.16z"/>
				<path style="fill:#991F25;" d="M489.851,155.23c-2.162,1.042-4.998-0.363-6.336-3.137c-1.338-2.775-0.67-5.87,1.491-6.912
					c2.161-1.042,4.998,0.363,6.336,3.138C492.68,151.093,492.012,154.188,489.851,155.23z"/>
				<path style="fill:#991F25;" d="M502.366,146.57c-0.82,1.481-3.026,1.828-4.928,0.776c-1.901-1.053-2.778-3.107-1.958-4.588
					c0.82-1.481,3.026-1.829,4.928-0.776C502.309,143.034,503.186,145.088,502.366,146.57z"/>
			</g>
		</g>
		<path style="fill:#BE3435;" d="M462.139,154.119c0,1.457-1.181,2.637-2.637,2.637c-1.456,0-2.637-1.181-2.637-2.637
			c0-1.456,1.181-2.637,2.637-2.637C460.959,151.482,462.139,152.663,462.139,154.119z"/>
		<path style="fill:#BE3435;" d="M486.626,258.685c0,2.571-2.084,4.656-4.656,4.656c-2.571,0-4.656-2.084-4.656-4.656
			c0-2.571,2.085-4.656,4.656-4.656C484.542,254.03,486.626,256.114,486.626,258.685z"/>
		<g>
			<polygon style="fill:#283034;" points="62.611,426.474 139.958,425.988 217.305,425.709 372,425.475 526.695,425.705 
				604.042,425.985 681.389,426.474 604.042,426.964 526.695,427.244 372,427.473 217.305,427.24 139.958,426.961 			"/>
		</g>
		<line style="fill:none;stroke:#F1DDB4;stroke-width:9;stroke-miterlimit:10;" x1="446.09" y1="89.588" x2="446.09" y2="326.022"/>
		<g>
			
				<line style="fill:none;stroke:#F1DDB4;stroke-width:4;stroke-miterlimit:10;" x1="352.917" y1="101.137" x2="544.166" y2="101.137"/>
			
				<line style="fill:none;stroke:#F1DDB4;stroke-width:4;stroke-miterlimit:10;" x1="352.917" y1="108.493" x2="544.166" y2="108.493"/>
			
				<line style="fill:none;stroke:#F1DDB4;stroke-width:4;stroke-miterlimit:10;" x1="352.917" y1="115.849" x2="544.166" y2="115.849"/>
			
				<line style="fill:none;stroke:#F1DDB4;stroke-width:4;stroke-miterlimit:10;" x1="352.917" y1="123.204" x2="544.166" y2="123.204"/>
			
				<line style="fill:none;stroke:#F1DDB4;stroke-width:4;stroke-miterlimit:10;" x1="352.917" y1="130.56" x2="544.166" y2="130.56"/>
			
				<line style="fill:none;stroke:#F1DDB4;stroke-width:4;stroke-miterlimit:10;" x1="352.917" y1="137.916" x2="544.166" y2="137.916"/>
		</g>
		<g>
			<line style="fill:none;stroke:#F1DDB4;stroke-miterlimit:10;" x1="525.236" y1="92.043" x2="525.236" y2="191.52"/>
			<path style="fill:#F1DDB4;" d="M530.254,191.52c0,2.771-2.247,5.018-5.018,5.018c-2.771,0-5.018-2.247-5.018-5.018
				c0-2.771,2.247-5.018,5.018-5.018C528.008,186.502,530.254,188.749,530.254,191.52z"/>
		</g>
		<g>
			<linearGradient id="SVGID_1_" gradientUnits="userSpaceOnUse" x1="316.5376" y1="180.4491" x2="554.9692" y2="180.4491">
				<stop  offset="0" style="stop-color:#FFFFFF;stop-opacity:0"/>
				<stop  offset="0.9996" style="stop-color:#FFFFFF"/>
			</linearGradient>
			<polygon style="fill:url(#SVGID_1_);" points="350.868,274.968 539.906,85.93 492.519,85.93 350.868,227.581 			"/>
			
				<linearGradient id="SVGID_00000156554083442798017550000001270869424532916622_" gradientUnits="userSpaceOnUse" x1="338.8613" y1="203.1173" x2="585.3533" y2="203.1173">
				<stop  offset="0" style="stop-color:#FFFFFF;stop-opacity:0"/>
				<stop  offset="0.9996" style="stop-color:#FFFFFF"/>
			</linearGradient>
			<polygon style="fill:url(#SVGID_00000156554083442798017550000001270869424532916622_);" points="350.868,295.415 
				350.868,307.697 548.065,110.5 548.065,98.537 			"/>
		</g>
		
			<rect x="353.559" y="91.675" style="fill:none;stroke:#F1DDB4;stroke-width:9;stroke-miterlimit:10;" width="190.944" height="238.031"/>
		<path style="fill:#E6B6AD;" d="M372.902,236.527c0.156-1.4,0.524-4.993,0.301-5.996c-0.278-1.254-1.95-6.38-2.182-9.617
			c-0.233-3.236,0.652-7.052,1.207-9.992c0.555-2.94-0.235-7.085,0.668-7.495c0.904-0.41,2.617,0.277,3.616,3.808
			c1.074,3.797,0.252,6.642,0.766,7.935c0.514,1.292,0.529,3.247,1.74,1.753c1.211-1.494,3.936-7.924,4.013-9.195
			c0.078-1.27,1.614-12.937,2.743-13.812c1.129-0.875,2.894,1.193,2.894,1.193s0.426-3.503,2.041-3.286
			c2.02,0.271,1.837,3.624,1.837,3.624s0.428-1.673,1.786-1.562c1.358,0.111,1.841,4.68,1.841,4.68s1.407-1.836,2.131-0.888
			c1.525,1.995,0.537,11.107,0.788,12.3c0.251,1.194-2.183,9.074-2.409,10.338c-0.225,1.265-5.35,7.585-7.395,10.764
			c-2.045,3.18-1.204,13.841-0.894,15.807c0.311,1.966-14.84,2.518-14.84,2.518S372.862,236.877,372.902,236.527z"/>
		<path style="fill:#C35145;" d="M358.612,278.452c0,0,9.628-38.856,10.512-44.445c0,0,19.713,1.014,24.219,6.121
			c3.992,4.524,7.984,10.646,7.984,10.646s-12.927,51.232-17.94,58.018c-5.014,6.786-20.056,6.387-20.646,4.79
			C362.151,311.986,358.612,278.452,358.612,278.452z"/>
		<path style="fill:#A8492F;" d="M298.604,215.98c0,0-72.928-12.578-103.268,48.633c-21.111,42.592-23.072,113.128,11.577,145.578
			c25.15,23.553,67.515,28.232,126.815,22.089c66.801-6.92,88.89-18.63,86.761-59.615c-2.129-40.985-17.033-68.664-42.582-73.986
			C352.357,293.356,357.16,216.316,298.604,215.98z"/>
		<path style="fill:#9B3F2A;" d="M370.189,365.479c0,0-7.984,21.557-63.075,26.348c-55.091,4.79-55.091,13.573-80.64-13.573
			c-25.549-27.146-13.573-109.383,10.379-127.746c23.952-18.364,51.897-35.13,75.051-11.976s25.549,61.478,43.114,82.237
			C372.584,341.527,386.157,355.1,370.189,365.479z"/>
		<g>
			<g>
				<path style="fill:#2E473E;" d="M120.366,234.6c0,0,14.713,60.304,39.395,68.885c24.682,8.581-2.936-112.503-21.757-116.441
					C119.184,183.106,111.712,199.764,120.366,234.6z"/>
				<path style="fill:none;stroke:#343639;stroke-miterlimit:10;" d="M129.211,199.362c0,0,44.376,122.795,44.79,151.45"/>
			</g>
			<g>
				<path style="fill:#2E473E;" d="M176.105,263.046c0,0-14.358-97.668,19.372-101.469
					C229.205,157.777,201.655,275.501,176.105,263.046z"/>
				<path style="fill:none;stroke:#343639;stroke-miterlimit:10;" d="M197.299,168.292c0,0-23.965,125.401-17.277,192.838"/>
			</g>
			<g>
				<path style="fill:#4C6C61;" d="M235.014,237.609c0,0-10.273,61.217-34.263,71.576c-23.99,10.359-5.281-112.417,13.202-117.718
					C232.436,186.166,241.103,202.234,235.014,237.609z"/>
				<path style="fill:none;stroke:#343639;stroke-miterlimit:10;" d="M223.622,203.11c0,0-35.298,125.705-33.62,154.314"/>
			</g>
			<g>
				<path style="fill:#4C6C61;" d="M155.22,233.5c0,0,5.016,59.078,20.064,64.094c15.048,5.016,11.147-73.011,5.573-87.502
					C175.284,195.601,151.319,201.175,155.22,233.5z"/>
				<path style="fill:none;stroke:#343639;stroke-miterlimit:10;" d="M169.432,207.305c0,0,6.688,107.009,16.441,136.548"/>
			</g>
			<g>
				<path style="fill:#343639;" d="M139.336,334.935h81.092l-5.756,83.45c-0.298,4.322-3.891,7.675-8.222,7.675h-53.136
					c-4.332,0-7.924-3.353-8.222-7.675L139.336,334.935z"/>
				<polygon style="fill:#282A2D;" points="139.336,334.935 140.537,352.352 219.227,352.352 220.428,334.935 				"/>
				<rect x="135.355" y="329.919" style="fill:#343639;" width="89.054" height="17.835"/>
			</g>
		</g>
		<g>
			<path style="fill:#BE3435;" d="M362.633,187.534c0.416,0.477,1.127,0.618,1.693,0.336c0.45-0.225,0.719-0.638,0.779-1.083
				c0.034-0.252,0.165-0.481,0.375-0.625l0.122-0.084c0.35-0.241,0.824-0.2,1.122,0.103c0.148,0.151,0.303,0.296,0.464,0.436
				c0.249,0.215,0.309,0.576,0.135,0.856l-0.039,0.063c-0.093,0.149-0.242,0.253-0.413,0.294c-0.232,0.055-0.438,0.216-0.54,0.465
				c-0.121,0.295-0.04,0.65,0.198,0.863c0.371,0.333,0.931,0.239,1.182-0.164c0.111-0.179,0.141-0.385,0.099-0.575
				c-0.038-0.174-0.014-0.355,0.08-0.507c0.183-0.294,0.559-0.394,0.868-0.237c0.247,0.126,0.504,0.24,0.768,0.341
				c0.443,0.169,0.694,0.639,0.608,1.105l0,0.002c-0.05,0.273-0.215,0.509-0.448,0.66c-0.37,0.238-0.629,0.647-0.65,1.14
				c-0.027,0.633,0.392,1.223,0.998,1.409c0.827,0.253,1.666-0.273,1.818-1.099c0.074-0.4-0.028-0.792-0.251-1.096
				c-0.164-0.224-0.234-0.503-0.183-0.777c0.087-0.473,0.499-0.814,0.979-0.815c0.181-0.001,0.361-0.007,0.541-0.02
				c0.329-0.024,0.627,0.189,0.702,0.51l0.016,0.07c0.04,0.171,0.008,0.35-0.084,0.5c-0.133,0.216-0.161,0.497-0.031,0.759
				c0.132,0.266,0.42,0.435,0.716,0.423c0.504-0.021,0.84-0.486,0.732-0.952c-0.05-0.214-0.183-0.386-0.358-0.49
				c-0.146-0.087-0.242-0.237-0.281-0.402l0-0.001c-0.078-0.337,0.117-0.674,0.446-0.781c0.285-0.092,0.563-0.2,0.835-0.324
				c0.395-0.179,0.86-0.064,1.106,0.293l0.086,0.124c0.144,0.21,0.185,0.47,0.127,0.718c-0.102,0.437,0.001,0.919,0.341,1.289
				c0.428,0.466,1.142,0.588,1.702,0.291c0.764-0.406,0.985-1.371,0.509-2.063c-0.233-0.339-0.588-0.544-0.965-0.599
				c-0.257-0.037-0.492-0.164-0.639-0.377l-0.084-0.122c-0.241-0.35-0.2-0.824,0.103-1.122c0.151-0.148,0.296-0.303,0.436-0.464
				c0.215-0.249,0.577-0.309,0.856-0.135l0.063,0.039c0.149,0.093,0.253,0.242,0.294,0.413c0.055,0.232,0.216,0.438,0.466,0.54
				c0.295,0.121,0.65,0.04,0.863-0.198c0.333-0.371,0.239-0.931-0.164-1.182c-0.179-0.111-0.385-0.141-0.575-0.099
				c-0.174,0.038-0.355,0.014-0.507-0.08c-0.294-0.183-0.394-0.559-0.237-0.868c0.126-0.247,0.241-0.504,0.342-0.768
				c0.169-0.443,0.639-0.694,1.105-0.608l0.002,0c0.273,0.05,0.509,0.215,0.66,0.448c0.238,0.37,0.647,0.629,1.14,0.65
				c0.633,0.027,1.223-0.392,1.409-0.998c0.254-0.828-0.273-1.666-1.099-1.818c-0.4-0.074-0.792,0.028-1.096,0.251
				c-0.224,0.164-0.504,0.234-0.777,0.183c-0.473-0.087-0.814-0.499-0.815-0.979c-0.001-0.181-0.007-0.362-0.02-0.541
				c-0.024-0.328,0.189-0.627,0.509-0.702l0.07-0.016c0.171-0.04,0.35-0.008,0.5,0.084c0.216,0.133,0.497,0.161,0.759,0.031
				c0.266-0.132,0.435-0.42,0.423-0.716c-0.021-0.504-0.487-0.84-0.953-0.732c-0.214,0.05-0.385,0.183-0.489,0.358
				c-0.087,0.146-0.237,0.242-0.402,0.281l-0.001,0c-0.337,0.078-0.674-0.117-0.781-0.446c-0.092-0.285-0.2-0.563-0.324-0.835
				c-0.183-0.403-0.036-0.879,0.328-1.13l0.076-0.053c0.218-0.15,0.488-0.19,0.746-0.132c0.433,0.096,0.908-0.009,1.274-0.345
				c0.466-0.428,0.587-1.142,0.291-1.702c-0.406-0.764-1.371-0.985-2.063-0.509c-0.316,0.218-0.42,0.559-0.432,0.919
				c-0.01,0.301-0.148,0.584-0.396,0.755l-0.094,0.065c-0.338,0.232-0.79,0.215-1.104-0.05c-0.226-0.191-0.468-0.375-0.658-0.54
				c-0.249-0.215-0.309-0.577-0.135-0.856l0.039-0.063c0.093-0.149,0.242-0.253,0.413-0.294c0.232-0.055,0.438-0.216,0.54-0.466
				c0.121-0.295,0.039-0.65-0.198-0.863c-0.371-0.332-0.931-0.239-1.182,0.164c-0.111,0.179-0.141,0.385-0.099,0.575
				c0.038,0.174,0.014,0.355-0.08,0.507c-0.183,0.294-0.56,0.394-0.868,0.237c-0.248-0.126-0.504-0.241-0.768-0.341
				c-0.443-0.169-0.694-0.639-0.608-1.105l0-0.002c0.05-0.273,0.215-0.509,0.448-0.66c0.37-0.238,0.629-0.647,0.65-1.14
				c0.027-0.632-0.392-1.223-0.998-1.409c-0.828-0.254-1.666,0.273-1.818,1.098c-0.074,0.4,0.028,0.792,0.251,1.096
				c0.164,0.224,0.234,0.504,0.183,0.777c-0.087,0.473-0.499,0.814-0.979,0.815c-0.181,0.001-0.362,0.007-0.541,0.02
				c-0.328,0.024-0.627-0.189-0.702-0.51l-0.016-0.07c-0.04-0.171-0.008-0.35,0.084-0.5c0.133-0.216,0.161-0.497,0.031-0.759
				c-0.132-0.266-0.42-0.435-0.716-0.423c-0.504,0.021-0.84,0.486-0.732,0.952c0.05,0.214,0.183,0.385,0.358,0.49
				c0.146,0.087,0.242,0.237,0.281,0.402l0,0.001c0.078,0.337-0.117,0.674-0.446,0.781c-0.285,0.092-0.563,0.2-0.835,0.324
				c-0.395,0.179-0.86,0.064-1.106-0.293l-0.086-0.124c-0.144-0.21-0.185-0.47-0.127-0.718c0.102-0.437-0.001-0.919-0.341-1.289
				c-0.428-0.466-1.142-0.587-1.702-0.291c-0.764,0.406-0.985,1.371-0.509,2.063c0.233,0.339,0.588,0.544,0.965,0.599
				c0.257,0.037,0.492,0.164,0.639,0.377l0.084,0.122c0.241,0.35,0.2,0.824-0.103,1.122c-0.151,0.148-0.296,0.303-0.435,0.464
				c-0.216,0.249-0.577,0.309-0.856,0.135l-0.063-0.039c-0.149-0.093-0.253-0.242-0.294-0.413c-0.055-0.232-0.216-0.438-0.466-0.54
				c-0.295-0.121-0.65-0.04-0.863,0.198c-0.333,0.371-0.239,0.931,0.164,1.182c0.179,0.111,0.385,0.141,0.575,0.099
				c0.174-0.038,0.355-0.014,0.507,0.08c0.294,0.183,0.394,0.559,0.237,0.868c-0.126,0.247-0.24,0.504-0.341,0.768
				c-0.169,0.443-0.639,0.694-1.105,0.608l-0.002,0c-0.273-0.05-0.509-0.214-0.66-0.448c-0.238-0.37-0.647-0.629-1.14-0.65
				c-0.632-0.027-1.223,0.392-1.409,0.998c-0.254,0.828,0.273,1.666,1.098,1.819c0.4,0.074,0.792-0.028,1.096-0.252
				c0.224-0.164,0.504-0.234,0.777-0.183c0.473,0.087,0.814,0.499,0.815,0.98c0,0.181,0.007,0.361,0.02,0.541
				c0.024,0.328-0.189,0.627-0.509,0.702l-0.07,0.016c-0.171,0.04-0.35,0.008-0.5-0.084c-0.216-0.133-0.497-0.161-0.759-0.031
				c-0.266,0.132-0.435,0.42-0.423,0.716c0.021,0.504,0.486,0.84,0.952,0.732c0.214-0.05,0.386-0.183,0.49-0.358
				c0.087-0.146,0.237-0.242,0.402-0.281l0.001,0c0.337-0.078,0.674,0.117,0.781,0.446c0.092,0.285,0.2,0.563,0.324,0.835
				c0.179,0.395,0.064,0.86-0.293,1.106l-0.123,0.085c-0.214,0.147-0.478,0.181-0.731,0.125c-0.372-0.084-0.776-0.018-1.115,0.215
				C362.202,185.902,362.064,186.882,362.633,187.534z"/>
			<g>
				<path style="fill:#991F25;" d="M373.784,175.601c-0.129,0.494-0.747,0.76-1.381,0.595c-0.634-0.165-1.043-0.7-0.914-1.193
					c0.129-0.494,0.747-0.76,1.381-0.594C373.503,174.573,373.913,175.107,373.784,175.601z"/>
				<path style="fill:#991F25;" d="M373.734,186.228c-0.166-0.316,0.028-0.744,0.433-0.956c0.405-0.213,0.868-0.129,1.033,0.186
					c0.166,0.315-0.028,0.744-0.433,0.956C374.363,186.627,373.9,186.544,373.734,186.228z"/>
				<path style="fill:#991F25;" d="M374.411,178.538c0.33-0.134,0.737,0.101,0.91,0.524c0.172,0.424,0.044,0.876-0.286,1.01
					c-0.33,0.134-0.737-0.101-0.91-0.524C373.953,179.124,374.081,178.672,374.411,178.538z"/>
				<path style="fill:#991F25;" d="M367.941,176.773c0.135,0.075,0.167,0.276,0.071,0.45c-0.096,0.174-0.284,0.254-0.419,0.179
					c-0.135-0.075-0.167-0.276-0.071-0.45C367.618,176.778,367.806,176.698,367.941,176.773z"/>
				<path style="fill:#991F25;" d="M379.197,179.885c-0.372,0.349-1.037,0.245-1.485-0.233c-0.448-0.478-0.51-1.148-0.138-1.497
					c0.372-0.349,1.037-0.245,1.485,0.233C379.507,178.866,379.569,179.536,379.197,179.885z"/>
				<path style="fill:#991F25;" d="M367.917,185.069c-0.744,0.358-1.719-0.125-2.18-1.079c-0.46-0.954-0.23-2.019,0.513-2.377
					c0.743-0.358,1.719,0.125,2.179,1.079C368.89,183.646,368.66,184.71,367.917,185.069z"/>
				<path style="fill:#991F25;" d="M372.221,182.09c-0.282,0.509-1.041,0.629-1.695,0.267c-0.654-0.362-0.956-1.069-0.673-1.578
					c0.282-0.509,1.041-0.629,1.695-0.267C372.202,180.874,372.504,181.58,372.221,182.09z"/>
			</g>
		</g>
		<g>
			<path style="fill:#C35145;" d="M347.488,358.042c0,0-114.589,31.149-111.011,14.689c1.996-9.182-3.238-21.023,0.2-24.551
				c7.585-7.784,7.584-17.823,8.383-24.352c0.799-6.529,10.418-78.438,16.81-81.571c6.393-3.134,26.183-7.432,26.183-7.432
				s33.653,0.433,35.251,1.216c1.598,0.783,7.934,3.094,7.934,3.094s10.731,16.876,10.731,29.411
				c0,12.535,0.533,42.622,1.066,48.367c0.533,5.745-0.266,15.408,0,21.153C343.293,343.617,349.243,354.263,347.488,358.042z"/>
			<path style="fill:#271914;" d="M307.016,158.756c0,0-7.435-0.744-9.368,4.164c-1.933,4.907,0.743,8.179-1.19,10.112
				c-1.933,1.933-3.718-0.297-6.246,4.61c-2.528,4.907-1.041,9.22,1.338,10.855c2.379,1.636,2.677,6.394,1.636,11.302
				c-1.041,4.907,5.948,7.286,7.435,5.651c1.487-1.636,6.246-45.652,6.246-45.652L307.016,158.756z"/>
			<path style="fill:#E6B6AD;" d="M300.771,188.348c0,0-4.015-4.536-8.179-2.826c-4.164,1.71-3.792,11.376,0,12.937
				c3.792,1.561,7.956,0.892,8.179-0.52C300.993,196.527,300.771,188.348,300.771,188.348z"/>
			<path style="fill:#E6B6AD;" d="M323.969,212.736c0,0-1.92,14.298,1.054,24.113c0,0,1.866,8.759-7.151,9.643
				c-15.168,1.487-24.685-12.789-24.685-12.789s7.733-26.618,6.692-41.637L323.969,212.736z"/>
			<path style="fill:#CC7B62;" d="M304.885,211.1l18.785,8.503c0.009,2.594-0.289,5.684-0.073,9.082
				C322.831,228.55,309.513,225.658,304.885,211.1z"/>
			<path style="fill:#E6B6AD;" d="M340.177,168.273c0,0,0.297,20.521,0.397,27.263c0.073,4.963,0.811,10.033-1.289,14.573
				c-3.668,7.931-13.383,11.797-17.547,11.847c0,0-12.937-3.866-18.737-13.532c-5.8-9.666-3.569-26.618-3.569-26.618
				s4.759-24.239,11.302-24.09C317.277,157.863,339.136,159.499,340.177,168.273z"/>
			<ellipse style="fill:#271914;" cx="338.145" cy="187.555" rx="1.735" ry="2.528"/>
			<path style="fill:#271914;" d="M315.214,187.555c0,1.396,0.777,2.528,1.735,2.528c0.958,0,1.735-1.132,1.735-2.528
				c0-1.396-0.777-2.528-1.735-2.528C315.99,185.027,315.214,186.159,315.214,187.555z"/>
			<path style="fill:none;stroke:#271914;stroke-linecap:round;stroke-linejoin:round;stroke-miterlimit:10;" d="M329.272,186.514
				l1.289,6.989l1.031-0.274c0.798-0.212,1.452,0.651,1.029,1.359c-0.817,1.37-1.249,2.003-2.407,3.425"/>
			<path style="fill:#FFFFFE;" d="M332.649,204.408c0,0-1.71,0.186-3.179-1.041c-1.468-1.227-2.007-2.602-3.42-1.989
				c-1.413,0.613-1.859,2.64-0.576,5.037c1.283,2.398,5.149,2.119,6.747,0.874C333.82,206.044,333.467,204.482,332.649,204.408z"/>
			<path style="fill:#271914;" d="M311.973,183.738c4.596-1.494,10.806-2.974,10.905-4.858s-3.519-2.082-7.386-0.297
				c-3.866,1.784-6.989,2.875-6.89,3.668C308.702,183.044,309.99,184.383,311.973,183.738z"/>
			<path style="fill:#271914;" d="M342.56,183.914c-4.416-1.963-10.439-4.08-10.342-5.963c0.097-1.884,3.716-1.705,7.377,0.471
				c3.66,2.176,6.653,3.585,6.472,4.363C345.886,183.563,344.465,184.761,342.56,183.914z"/>
			<path style="fill:#271914;" d="M348.505,169.661c0,0-0.297,7.138-8.625,7.534c-4.618,0.22-14.61-4.024-18.836-5.552
				c-3.395-1.228-6.383,5.421-11.5,4.164c-8.873-2.181-6.841-17.844-1.487-19.629c5.353-1.784,15.267-0.991,17.448-4.362
				c2.181-3.371,10.905-4.461,12.888,1.983c1.517,4.931,3.118,0.846,6.94,1.785C350.983,156.971,357.526,168.768,348.505,169.661z"
				/>
			<path style="fill:#271914;" d="M311.886,167.678c0,0,0.967,2.825-2.342,4.759c-3.309,1.933-4.35,1.71-4.089,3.16
				c0.26,1.45,1.413,4.052-0.781,6.32c-2.193,2.268-3.904,4.461-4.498,7.881c-0.595,3.42-0.521,3.718-0.521,3.718
				s-0.669-5.428-1.078-8.179c-0.409-2.751,0.743-12.566,0.743-12.566l6.58-11.041L311.886,167.678z"/>
			<path style="fill:#A8492F;" d="M318.881,249.087c-0.665,0.027-1.318,0.042-1.965,0.042c-11.137-0.001-19.59-4.146-28.746-13.977
				c-0.003-0.003-0.913-0.589-0.915-0.592c2.572-1.54,5.481-1.638,6.191-1.642c8.975,8.858,17.085,11.318,25.193,10.978
				c1.953-0.081,3.398-0.665,4.419-1.786c1.325-1.456,1.793-3.664,1.916-5.383c1.568,0.758,3.652,1.272,5.466,2.142
				c-0.393,2.05-1.482,4.72-3.182,6.6C325.249,247.692,322.352,248.942,318.881,249.087z"/>
			<path style="fill:#CC7B62;" d="M314.005,193.751c-2.683,0-4.858,2.175-4.858,4.858c0,2.683,2.175,4.857,4.858,4.857
				c2.683,0,4.858-2.175,4.858-4.857C318.863,195.926,316.688,193.751,314.005,193.751z"/>
			<path style="fill:#CC7B62;" d="M340.574,195.535c-0.005-0.32-0.01-0.679-0.016-1.057c-2.35,0.341-4.16,2.343-4.16,4.787
				c0,2.49,1.88,4.518,4.294,4.801C340.874,201.267,340.616,198.384,340.574,195.535z"/>
		</g>
		<path style="fill:#C35145;" d="M330.44,238.869c0,0,14.199,5.85,17.792,9.243c3.593,3.393,19.162,53.893,19.162,53.893
			l-25.35,25.15L330.44,238.869z"/>
		<path style="fill:#412F1B;" d="M367.88,383.242c0.479-0.239,2.154-2.753,8.377-2.753c6.223,0,13.715-0.106,13.715-0.106
			s2.595-0.083,2.68,0.824c0.08,0.842,7.898,0,8.617,0.12c0.718,0.12,3.71,0.12,3.71,0.12l5.625,6.103l-0.359,13.882v1.556
			l-20.584-0.479l-27.166-7.3L367.88,383.242z"/>
		
			<line style="fill:none;stroke:#A8492F;stroke-linecap:round;stroke-linejoin:round;stroke-miterlimit:10;" x1="337.853" y1="310.788" x2="334.659" y2="268.073"/>
		<path style="fill:#271914;" d="M373.505,382.404c0,0,8.616-0.598,14.72,0.239c6.103,0.838,10.651,1.197,13.643,1.197
			c2.992,0,10.053,0.838,10.053,0.838s-1.795,16.515-2.872,19.028c-1.077,2.513-17.353,3.231-18.789,3.231
			C388.823,406.937,373.505,382.404,373.505,382.404z"/>
		<path style="fill:#412F1B;" d="M402.352,398.932l-1.745,0.914c0,0-1.329,7.146-0.415,7.478s5.235,1.413,10.054,1.288
			c4.819-0.125,9.638-0.083,9.638-0.083l0.332-2.16c0,0,0.789-0.249,4.362,0.415c3.573,0.665,10.372,1.703,16.133,0.817
			c5.761-0.886,25.979-1.329,28.084-1.44c2.105-0.111,7.146-1.606,7.312-3.213c0.166-1.606-0.499-4.985-0.499-4.985
			s-15.067,0.886-26.422,0.942C437.831,398.96,402.352,398.932,402.352,398.932z"/>
		<path style="fill:#271914;" d="M405.925,380.487c0,0-5.068,17.698-4.902,19.027c0.166,1.329,2.077,2.327,7.727,2.327
			c5.65,0,17.532,0.249,21.022,0.748c3.49,0.499,14.873,0.166,20.855,0c5.982-0.166,18.529-0.332,23.016-2.659
			c4.487-2.327,0.499-3.822-2.41-3.739c-2.908,0.083-9.472-0.748-12.796-2.493c-3.323-1.745-6.149-5.235-10.386-6.896
			c-4.238-1.662-8.807-5.069-11.799-8.143c-2.991-3.074-1.08-10.386-3.656-10.885c-2.576-0.498-14.458,1.413-14.707,1.579
			c-0.249,0.166-11.633,10.552-11.633,10.552L405.925,380.487z"/>
		<path style="fill:#412F1B;" d="M297.29,353.237c0,0,50.725-55.741,54.136-58.972c3.411-3.231,14.72-18.131,19.926-18.849
			c5.206-0.718,18.31,0.897,23.336,7.36s7.36,15.079,12.745,24.952c5.385,9.873,10.232,24.772,14.899,31.055
			c4.667,6.283,8.437,14.899,8.975,20.105c0.539,5.206,5.771,8.587,5.173,13.178c-0.303,2.321-12.099,7.766-16.767,9.381
			c-4.667,1.616-14.408,9.555-18.364,5.988c-1.573-1.419-1.098-8.083-1.098-8.801c0-0.718-4.129-5.924-4.488-7.539
			c-0.359-1.616-0.359-3.77-0.718-5.924c-0.359-2.154-4.847-6.821-9.335-16.156c-4.488-9.335-10.591-20.285-10.591-20.285
			s-9.694,23.516-16.515,33.748c-6.821,10.232-10.591,15.797-10.591,15.797l-29.799-12.985L297.29,353.237z"/>
		<path style="opacity:0.5;fill:#271914;" d="M318.216,365.291l29.799,12.984c0,0,2.954-4.361,8.356-12.447l-40.875-9.863
			L318.216,365.291z"/>
		<path style="fill:#412F1B;" d="M240.069,377.547c-0.447-1.706,0.024-3.511,1.353-4.671c3.758-3.281,11.01-8.922,17.197-9.679
			c8.796-1.077,7.719-3.411,10.591-3.949c2.872-0.539,12.925-4.847,19.028-4.847c6.103,0,14.109-6.22,25.286-3.825
			c6.226,1.334,13.667,10.826,19.053,13.698c5.385,2.872,19.207,11.668,25.67,15.976c0,0,5.385,0.987,7.091,0.987
			c1.705,0,2.334-1.167,8.168,1.167c5.834,2.334,9.693,2.962,12.207,4.936c2.513,1.975,5.026,0.449,5.385,10.412
			c0.359,9.963-0.718,12.566-2.603,12.925c-1.885,0.359-9.065,0.18-10.322,0.898c-1.257,0.718-9.424,0.539-12.476,0.09
			c-3.052-0.449-9.424-1.077-16.246-1.436s-15.797,0.269-22.169-0.269c-6.373-0.539-16.515-4.757-17.861-4.757
			c-1.346,0-1.346,0.09-5.834,1.705c-4.488,1.616-18.31,3.949-28.991,4.039c-10.681,0.09-16.156-0.628-22.08-3.5
			c-5.924-2.872-10.95-13.374-10.95-13.374s-1.975-8.078-1.346-12.566C240.454,379.824,240.324,378.52,240.069,377.547z"/>
		<path style="fill:none;stroke:#271914;stroke-linecap:round;stroke-linejoin:round;stroke-miterlimit:10;" d="M294.149,403.293
			c0,0,9.73,4.391,15.271,1.909c0,0-6.856-1.294-12.13-4.063"/>
		<path style="fill:#E6B6AD;" d="M321.49,351.369c3.093,0.007,6.659,1.118,9.415,1.854c2.756,0.736,6.753,0.277,7.079,1.165
			c0.326,0.888-0.449,2.469-3.876,3.169c-3.686,0.753-6.333-0.229-7.598,0.168c-0.372,0.117-0.794,0.188-1.173,0.263"/>
		<g>
			<path style="fill:#E1E0E0;" d="M348.154,342.76l-8.354-8.483l0.008-0.029l-0.028,0.008l-0.02-0.021l-0.008,0.029l-11.445,3.281
				l-4.394,16.723l1.546,3.797l-4.241,8.081l-5.257,16.479c-0.421,1.602,0.536,3.241,2.138,3.662l7.469,1.962l0.048,0.013
				l7.469,1.962c1.602,0.421,3.241-0.536,3.662-2.138l3.523-16.935l0.279-9.122l3.212-2.547L348.154,342.76z"/>
			
				<rect x="335.986" y="330.401" transform="matrix(0.9672 0.2541 -0.2541 0.9672 96.5628 -75.1817)" style="fill:#E1E0E0;" width="6.586" height="11.527"/>
			
				<rect x="337.249" y="327.628" transform="matrix(0.9672 0.2541 -0.2541 0.9672 95.0627 -75.791)" style="fill:#BFBFBF;" width="7.273" height="4.845"/>
			
				<rect x="325.639" y="342.322" transform="matrix(0.9672 0.2541 -0.2541 0.9672 99.4645 -74.0041)" style="fill:#D3D1D1;" width="21.067" height="11.328"/>
		</g>
		<polygon style="fill:#FFFFFF;" points="328.605,337.867 337.354,339.897 339.117,332.478 337.254,331.979 336.289,335.539 		"/>
		<path style="fill:#FFFFFF;" d="M329.869,375.06l-3.194,11.71l0.067,0.466l6.121,1.747c1.314,0.375,2.667-0.457,2.924-1.799
			l1.899-9.895L329.869,375.06z"/>
		<path style="fill:#E6B6AD;" d="M325.336,357.988c-0.909,0.18-1.56,0.379-0.617,1.267c1.335,1.257,7.257,4.302,8.459,4.466
			c1.202,0.164,12.186,2.449,12.939,3.584c0.752,1.135-1.339,2.667-1.339,2.667s3.3,0.652,2.98,2.173
			c-0.4,1.901-3.575,1.491-3.575,1.491s1.56,0.525,1.359,1.809c-0.201,1.283-4.58,1.42-4.58,1.42s1.646,1.467,0.694,2.089
			c-2.005,1.309-10.598-0.274-11.751-0.12c-1.153,0.154-8.473-2.717-9.659-3.02c-1.186-0.304-6.834-5.622-9.712-7.791
			c-2.879-2.169-13.075-2.123-14.966-1.967c-1.891,0.156-1.346-14.288-1.346-14.288s11.96,0.226,12.291,0.288
			c1.319,0.247,4.71,0.851,5.68,0.71c1.212-0.176,6.204-1.403,9.297-1.396"/>
		<path style="fill:#C35145;" d="M261.87,242.257c0,0-8.516,4.524-14.904,17.299c-6.387,12.775-28.871,85.451-23.686,93.548
			c5.298,8.273,21.788,12.109,36.461,16.367c19.667,5.707,36.727,8.517,36.727,8.517s22.852-24.505,18.364-30.34
			c-5.323-6.92-50.832-15.303-50.832-15.303L261.87,242.257z"/>
		<path style="fill:none;stroke:#A8492F;stroke-linecap:round;stroke-linejoin:round;stroke-miterlimit:10;" d="M339.45,273.263
			c0,0,1.397,8.982,0.399,16.767c-0.998,7.785-2.395,12.176-2.395,12.176"/>
		<path style="fill:none;stroke:#A8492F;stroke-linecap:round;stroke-linejoin:round;stroke-miterlimit:10;" d="M280.234,272.065
			c0,0,1.597,6.449,1.064,13.375c-0.532,6.926-8.25,25.795-8.25,27.228c0,1.433,6.92-10.748,10.379-16.241
			c3.46-5.493,4.524-15.763,4.524-15.763"/>
		<path style="fill:#C35145;" d="M302.323,342.325c0,0-6.387,2.196,3.194,1.397c9.581-0.798,19.63-7.812,25.35-10.579
			c5.72-2.767,12.575-14.771,6.986-22.356s-10.379-9.581-10.379-9.581L302.323,342.325z"/>
		<g>
			<g>
				<circle style="fill:#343639;" cx="275.862" cy="117.824" r="44.469"/>
				<g>
					
						<ellipse transform="matrix(0.9202 -0.3914 0.3914 0.9202 -24.1083 117.3799)" style="fill:#EADBB7;" cx="275.862" cy="117.824" rx="38.604" ry="38.604"/>
					<g>
						
							<rect x="300.012" y="86.596" transform="matrix(0.7071 0.7071 -0.7071 0.7071 153.9959 -185.983)" style="fill:#343639;" width="2.944" height="12.579"/>
						
							<rect x="248.714" y="137.97" transform="matrix(0.7071 0.7071 -0.7071 0.7071 175.2243 -134.6764)" style="fill:#343639;" width="2.944" height="12.427"/>
					</g>
					<g>
						
							<rect x="300.012" y="137.84" transform="matrix(-0.7071 0.7071 -0.7071 -0.7071 616.5751 32.8479)" style="fill:#343639;" width="2.944" height="12.579"/>
						
							<rect x="248.714" y="86.618" transform="matrix(-0.7071 0.7071 -0.7071 -0.7071 492.7392 -18.4291)" style="fill:#343639;" width="2.944" height="12.427"/>
					</g>
					<g>
						
							<rect x="274.39" y="148.453" transform="matrix(-1 -1.224647e-16 1.224647e-16 -1 551.724 309.4851)" style="fill:#343639;" width="2.944" height="12.578"/>
						
							<rect x="274.39" y="75.983" transform="matrix(-1 -1.224647e-16 1.224647e-16 -1 551.724 164.3931)" style="fill:#343639;" width="2.944" height="12.427"/>
					</g>
					<g>
						
							<rect x="238.155" y="112.218" transform="matrix(6.123234e-17 -1 1 6.123234e-17 121.1195 358.1344)" style="fill:#343639;" width="2.944" height="12.579"/>
						
							<rect x="310.701" y="112.294" transform="matrix(6.123234e-17 -1 1 6.123234e-17 193.6655 430.6805)" style="fill:#343639;" width="2.944" height="12.427"/>
					</g>
					<g>
						<g>
							
								<line style="fill:none;stroke:#343639;stroke-width:2;stroke-miterlimit:10;" x1="258.91" y1="134.776" x2="275.862" y2="117.824"/>
						</g>
						
							<polyline style="fill:none;stroke:#343639;stroke-width:2;stroke-linecap:round;stroke-linejoin:round;stroke-miterlimit:10;" points="
							259.698,131.543 258.476,135.131 262.406,134.382 						"/>
					</g>
					<g>
						<g>
							
								<line style="fill:none;stroke:#343639;stroke-width:2;stroke-miterlimit:10;" x1="276.071" y1="99.774" x2="276.071" y2="116.351"/>
						</g>
						
							<polyline style="fill:none;stroke:#343639;stroke-width:2;stroke-linecap:round;stroke-linejoin:round;stroke-miterlimit:10;" points="
							278.217,102.306 276.127,99.216 273.925,102.255 						"/>
					</g>
					<path style="fill:#983239;" d="M279.804,117.824c0,2.177-1.765,3.942-3.942,3.942s-3.942-1.765-3.942-3.942
						c0-2.177,1.765-3.942,3.942-3.942S279.804,115.647,279.804,117.824z"/>
					<path style="opacity:0.5;fill:#DAB591;" d="M277.439,80.955c10.902,0,20.742,4.527,27.762,11.794
						c-7.08-8.276-17.593-13.529-29.339-13.529c-21.32,0-38.604,17.284-38.604,38.604c0,10.418,4.134,19.865,10.842,26.81
						c-5.772-6.747-9.265-15.5-9.265-25.075C238.835,98.239,256.119,80.955,277.439,80.955z"/>
				</g>
			</g>
			<g>
				<path style="fill:none;stroke:#343639;stroke-width:3;stroke-linecap:round;stroke-linejoin:round;stroke-miterlimit:10;" d="
					M287.216,67.678c0,0,20.342-1.419,31.246,19.285"/>
				<path style="fill:none;stroke:#343639;stroke-width:3;stroke-linecap:round;stroke-linejoin:round;stroke-miterlimit:10;" d="
					M290.843,61.528c0,0,20.342-1.419,31.246,19.285"/>
			</g>
			<g>
				<path style="fill:none;stroke:#343639;stroke-width:3;stroke-linecap:round;stroke-linejoin:round;stroke-miterlimit:10;" d="
					M257.754,165.63c0,0-20.362-1.102-28.628-22.993"/>
				<path style="fill:none;stroke:#343639;stroke-width:3;stroke-linecap:round;stroke-linejoin:round;stroke-miterlimit:10;" d="
					M253.396,171.285c0,0-20.362-1.101-28.628-22.993"/>
			</g>
		</g>
		<g>
			<g>
				<polygon style="fill:#412F1B;" points="536.065,304.663 519.463,425.176 526.065,425.176 560.585,303.42 				"/>
				<polygon style="fill:#412F1B;" points="613.624,304.663 630.226,425.176 623.624,425.176 589.103,303.42 				"/>
			</g>
			<path style="fill:#EDB146;" d="M632.523,321.354H517.165c-4.141,0-7.499-3.357-7.499-7.499v-48.85
				c0-4.141,3.357-7.499,7.499-7.499h115.358c4.142,0,7.499,3.357,7.499,7.499v48.85
				C640.022,317.997,636.665,321.354,632.523,321.354z"/>
			<path style="fill:none;stroke:#CC8E29;stroke-miterlimit:10;" d="M631.417,315.339H518.271c-1.635,0-2.961-1.326-2.961-2.961
				v-45.894c0-1.636,1.326-2.962,2.961-2.962h113.146c1.636,0,2.961,1.326,2.961,2.962v45.894
				C634.379,314.013,633.053,315.339,631.417,315.339z"/>
			<circle style="fill:#CC8E29;" cx="574.844" cy="287.874" r="6.639"/>
		</g>
		<path style="fill:none;stroke:#271914;stroke-width:6;stroke-miterlimit:10;" d="M571.509,257.344l-0.898-63.285
			c-0.258-18.218-11.284-33.678-26.326-36.914l-81.51-17.536c-9.145-1.968-17.555,6.41-17.555,17.489v0.294"/>
		<rect x="557.705" y="234.885" style="fill:#271914;" width="27.608" height="22.622"/>
		<g>
			<path style="fill:#EDB146;" d="M444.374,197.196L444.374,197.196c-4.333,0-7.846-3.513-7.846-7.846v-12.012
				c0-4.333,3.513,1.129,7.846,1.129v-8.164c4.333,0,7.846,2.702,7.846,7.036v12.012
				C452.219,193.683,448.707,197.196,444.374,197.196z"/>
			<path style="fill:#CC8E29;" d="M448.399,171.205c1.138,1.185,1.825,2.779,1.825,4.693v12.012c0,4.333-3.513,7.846-7.846,7.846
				c-1.279,0-2.483-0.313-3.55-0.856c1.42,1.419,3.38,2.296,5.546,2.296c4.333,0,7.846-3.513,7.846-7.846v-12.012
				C452.219,174.479,450.685,172.336,448.399,171.205z"/>
			<g>
				<path style="fill:#C35145;" d="M477.133,183.749c-0.967-17.189-15.207-30.831-32.638-30.831
					c-17.431,0-31.672,13.642-32.638,30.831H477.133z"/>
				<path style="fill:#9B3F2A;" d="M444.495,152.919c-1.288,0-2.555,0.083-3.804,0.228c15.656,1.816,27.939,14.684,28.834,30.603
					h7.608C476.167,166.56,461.926,152.919,444.495,152.919z"/>
			</g>
		</g>
	</g>
</g>
</svg>
